<svg class="animated" id="freepik_stories-online-world" xmlns="http://www.w3.org/2000/svg" xmlns:xlink="http://www.w3.org/1999/xlink" viewBox="0 0 500 500" version="1.1" xmlns:svgjs="http://svgjs.com/svgjs"><style>svg#freepik_stories-online-world:not(.animated) .animable {opacity: 0;}svg#freepik_stories-online-world.animated #freepik--Device--inject-122 {animation: 1.5s Infinite  linear heartbeat;animation-delay: 0s;}svg#freepik_stories-online-world.animated #elwhts64n3nue {animation: 4.7s 1 forwards cubic-bezier(.36,-0.01,.5,1.38) slideDown;animation-delay: 0s;}svg#freepik_stories-online-world.animated #elydns4fs2pmj {animation: 4.7s 1 forwards cubic-bezier(.36,-0.01,.5,1.38) slideDown;animation-delay: 0.07230769230769231s;opacity: 0}svg#freepik_stories-online-world.animated #el94qtln7nwn {animation: 4.7s 1 forwards cubic-bezier(.36,-0.01,.5,1.38) slideDown;animation-delay: 0.14461538461538462s;opacity: 0}svg#freepik_stories-online-world.animated #el2kbma45wi2w {animation: 4.7s 1 forwards cubic-bezier(.36,-0.01,.5,1.38) slideDown;animation-delay: 0.21692307692307694s;opacity: 0}svg#freepik_stories-online-world.animated #eln51296z0qfe {animation: 4.7s 1 forwards cubic-bezier(.36,-0.01,.5,1.38) slideDown;animation-delay: 0.28923076923076924s;opacity: 0}svg#freepik_stories-online-world.animated #el26l4m852ved {animation: 4.7s 1 forwards cubic-bezier(.36,-0.01,.5,1.38) slideDown;animation-delay: 0.36153846153846153s;opacity: 0}svg#freepik_stories-online-world.animated #eldmwtqlvfr7l {animation: 4.7s 1 forwards cubic-bezier(.36,-0.01,.5,1.38) slideDown;animation-delay: 0.4338461538461539s;opacity: 0}svg#freepik_stories-online-world.animated #elog3273rb9g {animation: 4.7s 1 forwards cubic-bezier(.36,-0.01,.5,1.38) slideDown;animation-delay: 0.5061538461538462s;opacity: 0}svg#freepik_stories-online-world.animated #eltiiof4jody {animation: 4.7s 1 forwards cubic-bezier(.36,-0.01,.5,1.38) slideDown;animation-delay: 0.5784615384615385s;opacity: 0}svg#freepik_stories-online-world.animated #elmftq81fbnhs {animation: 4.7s 1 forwards cubic-bezier(.36,-0.01,.5,1.38) slideDown;animation-delay: 0.6507692307692308s;opacity: 0}svg#freepik_stories-online-world.animated #elsb8hcn6oyyc {animation: 4.7s 1 forwards cubic-bezier(.36,-0.01,.5,1.38) slideDown;animation-delay: 0.7230769230769231s;opacity: 0}svg#freepik_stories-online-world.animated #elyklhl8qgpl {animation: 4.7s 1 forwards cubic-bezier(.36,-0.01,.5,1.38) slideDown;animation-delay: 0.7953846153846154s;opacity: 0}svg#freepik_stories-online-world.animated #el6uo9do7gmm4 {animation: 4.7s 1 forwards cubic-bezier(.36,-0.01,.5,1.38) slideDown;animation-delay: 0.8676923076923078s;opacity: 0}svg#freepik_stories-online-world.animated #elg4dlwckeyaw {animation: 4.7s 1 forwards cubic-bezier(.36,-0.01,.5,1.38) slideDown;animation-delay: 0.9400000000000001s;opacity: 0}svg#freepik_stories-online-world.animated #ele8mhcjppk68 {animation: 4.7s 1 forwards cubic-bezier(.36,-0.01,.5,1.38) slideDown;animation-delay: 1.0123076923076924s;opacity: 0}svg#freepik_stories-online-world.animated #elso5kwh8tr3i {animation: 4.7s 1 forwards cubic-bezier(.36,-0.01,.5,1.38) slideDown;animation-delay: 1.0846153846153845s;opacity: 0}svg#freepik_stories-online-world.animated #ele5xkc9ajf3m {animation: 4.7s 1 forwards cubic-bezier(.36,-0.01,.5,1.38) slideDown;animation-delay: 1.156923076923077s;opacity: 0}svg#freepik_stories-online-world.animated #el3n39rfkgk8s {animation: 4.7s 1 forwards cubic-bezier(.36,-0.01,.5,1.38) slideDown;animation-delay: 1.2292307692307693s;opacity: 0}svg#freepik_stories-online-world.animated #elfsoxomz842t {animation: 4.7s 1 forwards cubic-bezier(.36,-0.01,.5,1.38) slideDown;animation-delay: 1.3015384615384615s;opacity: 0}svg#freepik_stories-online-world.animated #el2wshvhbkhiw {animation: 4.7s 1 forwards cubic-bezier(.36,-0.01,.5,1.38) slideDown;animation-delay: 1.373846153846154s;opacity: 0}svg#freepik_stories-online-world.animated #el1x5skriekcw {animation: 4.7s 1 forwards cubic-bezier(.36,-0.01,.5,1.38) slideDown;animation-delay: 1.4461538461538461s;opacity: 0}svg#freepik_stories-online-world.animated #el8coe4w4flfp {animation: 4.7s 1 forwards cubic-bezier(.36,-0.01,.5,1.38) slideDown;animation-delay: 1.5184615384615385s;opacity: 0}svg#freepik_stories-online-world.animated #elgquw2dt3idn {animation: 4.7s 1 forwards cubic-bezier(.36,-0.01,.5,1.38) slideDown;animation-delay: 1.5907692307692307s;opacity: 0}svg#freepik_stories-online-world.animated #elytm8zulp8b {animation: 4.7s 1 forwards cubic-bezier(.36,-0.01,.5,1.38) slideDown;animation-delay: 1.6630769230769231s;opacity: 0}svg#freepik_stories-online-world.animated #el15e3er76q0q {animation: 4.7s 1 forwards cubic-bezier(.36,-0.01,.5,1.38) slideDown;animation-delay: 1.7353846153846155s;opacity: 0}svg#freepik_stories-online-world.animated #elqj7opquue8i {animation: 4.7s 1 forwards cubic-bezier(.36,-0.01,.5,1.38) slideDown;animation-delay: 1.8076923076923077s;opacity: 0}svg#freepik_stories-online-world.animated #elzq8fzf1cgl {animation: 4.7s 1 forwards cubic-bezier(.36,-0.01,.5,1.38) slideDown;animation-delay: 1.8800000000000001s;opacity: 0}svg#freepik_stories-online-world.animated #elgxetn21dzp7 {animation: 4.7s 1 forwards cubic-bezier(.36,-0.01,.5,1.38) slideDown;animation-delay: 1.9523076923076923s;opacity: 0}svg#freepik_stories-online-world.animated #elf3z34mbgvrw {animation: 4.7s 1 forwards cubic-bezier(.36,-0.01,.5,1.38) slideDown;animation-delay: 2.0246153846153847s;opacity: 0}svg#freepik_stories-online-world.animated #eldonmma9l81g {animation: 4.7s 1 forwards cubic-bezier(.36,-0.01,.5,1.38) slideDown;animation-delay: 2.096923076923077s;opacity: 0}svg#freepik_stories-online-world.animated #el2w6yq5lgwgt {animation: 4.7s 1 forwards cubic-bezier(.36,-0.01,.5,1.38) slideDown;animation-delay: 2.169230769230769s;opacity: 0}svg#freepik_stories-online-world.animated #eld9hredyhpgu {animation: 4.7s 1 forwards cubic-bezier(.36,-0.01,.5,1.38) slideDown;animation-delay: 2.2415384615384615s;opacity: 0}svg#freepik_stories-online-world.animated #elh1xsngylspe {animation: 4.7s 1 forwards cubic-bezier(.36,-0.01,.5,1.38) slideDown;animation-delay: 2.313846153846154s;opacity: 0}svg#freepik_stories-online-world.animated #elfx0hno88u5k {animation: 4.7s 1 forwards cubic-bezier(.36,-0.01,.5,1.38) slideDown;animation-delay: 2.3861538461538463s;opacity: 0}svg#freepik_stories-online-world.animated #elge1xzv8x0d {animation: 4.7s 1 forwards cubic-bezier(.36,-0.01,.5,1.38) slideDown;animation-delay: 2.4584615384615387s;opacity: 0}svg#freepik_stories-online-world.animated #elmp6su4s6qfi {animation: 4.7s 1 forwards cubic-bezier(.36,-0.01,.5,1.38) slideDown;animation-delay: 2.5307692307692307s;opacity: 0}svg#freepik_stories-online-world.animated #elkrn7picbwn {animation: 4.7s 1 forwards cubic-bezier(.36,-0.01,.5,1.38) slideDown;animation-delay: 2.603076923076923s;opacity: 0}svg#freepik_stories-online-world.animated #elaeat7z8rep9 {animation: 4.7s 1 forwards cubic-bezier(.36,-0.01,.5,1.38) slideDown;animation-delay: 2.6753846153846155s;opacity: 0}svg#freepik_stories-online-world.animated #elzm4uyounypj {animation: 4.7s 1 forwards cubic-bezier(.36,-0.01,.5,1.38) slideDown;animation-delay: 2.747692307692308s;opacity: 0}svg#freepik_stories-online-world.animated #elbrxd1nydu0p {animation: 4.7s 1 forwards cubic-bezier(.36,-0.01,.5,1.38) slideDown;animation-delay: 2.82s;opacity: 0}svg#freepik_stories-online-world.animated #elwojjfvpwsh {animation: 4.7s 1 forwards cubic-bezier(.36,-0.01,.5,1.38) slideDown;animation-delay: 2.8923076923076922s;opacity: 0}svg#freepik_stories-online-world.animated #el0mves6nq9efe {animation: 4.7s 1 forwards cubic-bezier(.36,-0.01,.5,1.38) slideDown;animation-delay: 2.9646153846153847s;opacity: 0}svg#freepik_stories-online-world.animated #elbpbymfpdna {animation: 4.7s 1 forwards cubic-bezier(.36,-0.01,.5,1.38) slideDown;animation-delay: 3.036923076923077s;opacity: 0}svg#freepik_stories-online-world.animated #eldzal4c74zzo {animation: 4.7s 1 forwards cubic-bezier(.36,-0.01,.5,1.38) slideDown;animation-delay: 3.1092307692307695s;opacity: 0}svg#freepik_stories-online-world.animated #elis6z5j5g8j8 {animation: 4.7s 1 forwards cubic-bezier(.36,-0.01,.5,1.38) slideDown;animation-delay: 3.1815384615384614s;opacity: 0}svg#freepik_stories-online-world.animated #el1p8lzq807qoj {animation: 4.7s 1 forwards cubic-bezier(.36,-0.01,.5,1.38) slideDown;animation-delay: 3.253846153846154s;opacity: 0}svg#freepik_stories-online-world.animated #elnqet8axrirr {animation: 4.7s 1 forwards cubic-bezier(.36,-0.01,.5,1.38) slideDown;animation-delay: 3.3261538461538462s;opacity: 0}svg#freepik_stories-online-world.animated #eltfvbqffnca {animation: 4.7s 1 forwards cubic-bezier(.36,-0.01,.5,1.38) slideDown;animation-delay: 3.3984615384615386s;opacity: 0}svg#freepik_stories-online-world.animated #elyjaanlzdqkg {animation: 4.7s 1 forwards cubic-bezier(.36,-0.01,.5,1.38) slideDown;animation-delay: 3.470769230769231s;opacity: 0}svg#freepik_stories-online-world.animated #eljrg7a0kimyd {animation: 4.7s 1 forwards cubic-bezier(.36,-0.01,.5,1.38) slideDown;animation-delay: 3.543076923076923s;opacity: 0}svg#freepik_stories-online-world.animated #elfmw80m374rk {animation: 4.7s 1 forwards cubic-bezier(.36,-0.01,.5,1.38) slideDown;animation-delay: 3.6153846153846154s;opacity: 0}svg#freepik_stories-online-world.animated #el22cp9oggwue {animation: 4.7s 1 forwards cubic-bezier(.36,-0.01,.5,1.38) slideDown;animation-delay: 3.687692307692308s;opacity: 0}svg#freepik_stories-online-world.animated #elppnsfl1hr4 {animation: 4.7s 1 forwards cubic-bezier(.36,-0.01,.5,1.38) slideDown;animation-delay: 3.7600000000000002s;opacity: 0}svg#freepik_stories-online-world.animated #elpxqgo0kcka {animation: 4.7s 1 forwards cubic-bezier(.36,-0.01,.5,1.38) slideDown;animation-delay: 3.832307692307692s;opacity: 0}svg#freepik_stories-online-world.animated #elyubrh9yfmh {animation: 4.7s 1 forwards cubic-bezier(.36,-0.01,.5,1.38) slideDown;animation-delay: 3.9046153846153846s;opacity: 0}svg#freepik_stories-online-world.animated #elw32cbptglf {animation: 4.7s 1 forwards cubic-bezier(.36,-0.01,.5,1.38) slideDown;animation-delay: 3.976923076923077s;opacity: 0}svg#freepik_stories-online-world.animated #elnbn02e3o7u {animation: 4.7s 1 forwards cubic-bezier(.36,-0.01,.5,1.38) slideDown;animation-delay: 4.049230769230769s;opacity: 0}svg#freepik_stories-online-world.animated #ellm8kjhzw3qs {animation: 4.7s 1 forwards cubic-bezier(.36,-0.01,.5,1.38) slideDown;animation-delay: 4.121538461538462s;opacity: 0}svg#freepik_stories-online-world.animated #elb2lqxv5m4p7 {animation: 4.7s 1 forwards cubic-bezier(.36,-0.01,.5,1.38) slideDown;animation-delay: 4.193846153846154s;opacity: 0}svg#freepik_stories-online-world.animated #elmz48pnh0j5 {animation: 4.7s 1 forwards cubic-bezier(.36,-0.01,.5,1.38) slideDown;animation-delay: 4.266153846153847s;opacity: 0}svg#freepik_stories-online-world.animated #el5an3f7vligj {animation: 4.7s 1 forwards cubic-bezier(.36,-0.01,.5,1.38) slideDown;animation-delay: 4.338461538461538s;opacity: 0}svg#freepik_stories-online-world.animated #elzvyteeugw9p {animation: 4.7s 1 forwards cubic-bezier(.36,-0.01,.5,1.38) slideDown;animation-delay: 4.4107692307692306s;opacity: 0}svg#freepik_stories-online-world.animated #elctkbs7dn7jp {animation: 4.7s 1 forwards cubic-bezier(.36,-0.01,.5,1.38) slideDown;animation-delay: 4.483076923076923s;opacity: 0}svg#freepik_stories-online-world.animated #elbg5jg5nhyfm {animation: 4.7s 1 forwards cubic-bezier(.36,-0.01,.5,1.38) slideDown;animation-delay: 4.555384615384615s;opacity: 0}svg#freepik_stories-online-world.animated #elkf26kw9wev8 {animation: 4.7s 1 forwards cubic-bezier(.36,-0.01,.5,1.38) slideDown;animation-delay: 4.627692307692308s;opacity: 0}svg#freepik_stories-online-world.animated #freepik--earth-globe--inject-122 {animation: 4.7s 1 forwards cubic-bezier(.36,-0.01,.5,1.38) slideDown,3s Infinite  linear floating;animation-delay: 0s,4.7s;}            @keyframes heartbeat {                0% {                    transform: scale(1);                }                10% {                    transform: scale(1.1);                }                30% {                    transform: scale(1);                }                40% {                    transform: scale(1);                }                50% {                    transform: scale(1.1);                }                60% {                    transform: scale(1);                }                100% {                    transform: scale(1);                }            }                    @keyframes slideDown {                0% {                    opacity: 0;                    transform: translateY(-30px);                }                100% {                    opacity: 1;                    transform: translateY(0);                }            }                    @keyframes floating {                0% {                    opacity: 1;                    transform: translateY(0px);                }                50% {                    transform: translateY(-10px);                }                100% {                    opacity: 1;                    transform: translateY(0px);                }            }        </style><g id="freepik--background-simple--inject-122" class="animable" style="transform-origin: 255.637px 226.659px;"><path d="M431.8,261.49c4.11-27,1.17-54.8-6-81-6.44-23.51-14.56-47.65-33.46-64.16-22.9-20-51.49-22.61-80.51-19.22C254.4,103.8,238,79.2,195.51,80.69s-79.76,19.38-91.69,55.91,6.71,74.55-2.24,96.16S67.29,276,82.2,307.31,129.91,363.22,206,369.18s142.38,8.95,185.62-30.56C415,317.21,427.42,290.23,431.8,261.49Z" style="fill: rgb(144, 202, 249); transform-origin: 255.637px 226.659px;" id="elyqbelbalg6" class="animable"></path><g id="ellq0o5wm7flf"><path d="M431.8,261.49c4.11-27,1.17-54.8-6-81-6.44-23.51-14.56-47.65-33.46-64.16-22.9-20-51.49-22.61-80.51-19.22C254.4,103.8,238,79.2,195.51,80.69s-79.76,19.38-91.69,55.91,6.71,74.55-2.24,96.16S67.29,276,82.2,307.31,129.91,363.22,206,369.18s142.38,8.95,185.62-30.56C415,317.21,427.42,290.23,431.8,261.49Z" style="fill: rgb(255, 255, 255); opacity: 0.7; transform-origin: 255.637px 226.659px;" class="animable"></path></g></g><g id="freepik--Device--inject-122" class="animable animator-active" style="transform-origin: 254.251px 372.292px;"><path d="M394.05,350l.07-8.2L292.07,317l-177.7,59.46V385a1.74,1.74,0,0,0,.39,1.13,2.64,2.64,0,0,0,1.17.79l99.9,41.23a10.84,10.84,0,0,0,2.54.65,17.54,17.54,0,0,0,5.84-.15,11.64,11.64,0,0,0,2.56-.79L392.86,352a1.66,1.66,0,0,0,.84-.66A2,2,0,0,0,394.05,350Z" style="fill: rgb(255, 255, 255); transform-origin: 254.245px 372.988px;" id="el9odani2ummc" class="animable"></path><g style="clip-path: url(&quot;#freepik--clip-path--inject-122&quot;); transform-origin: 305.6px 373.069px;" id="eled10p62z1r4" class="animable"><g id="elh29iyjpnyfj"><path d="M393.7,351.36a2,2,0,0,0,.35-1.33l.07-8.2L292.07,317l-68.76,23v88.76c.3,0,.61-.08.9-.14a11.64,11.64,0,0,0,2.56-.79L392.86,352A1.66,1.66,0,0,0,393.7,351.36Z" style="opacity: 0.2; transform-origin: 308.715px 372.88px;" class="animable"></path></g><g id="elfocd05j7mgl"><path d="M220.56,429.13V415.36h-3.48V428.7A11,11,0,0,0,220.56,429.13Z" style="opacity: 0.2; transform-origin: 218.82px 422.249px;" class="animable"></path></g></g><path d="M394.05,350l.07-8.2L292.07,317l-177.7,59.46V385a1.74,1.74,0,0,0,.39,1.13,2.64,2.64,0,0,0,1.17.79l99.9,41.23a10.84,10.84,0,0,0,2.54.65,17.54,17.54,0,0,0,5.84-.15,11.64,11.64,0,0,0,2.56-.79L392.86,352a1.66,1.66,0,0,0,.84-.66A2,2,0,0,0,394.05,350Z" style="fill: none; stroke: rgb(38, 50, 56); stroke-miterlimit: 10; transform-origin: 254.245px 372.988px;" id="ele7cyyjzjmq" class="animable"></path><path d="M341.84,331.61l-13.07-3.31a3.45,3.45,0,0,0-.59-.1c-.21,0-.43,0-.64,0a5.6,5.6,0,0,0-.6.05,2.93,2.93,0,0,0-.49.12.66.66,0,0,0-.29.18.2.2,0,0,0,0,.19.44.44,0,0,0,.21.19,1.57,1.57,0,0,0,.44.16l13.07,3.34a5.55,5.55,0,0,0,.61.1l.65,0a5.73,5.73,0,0,0,.61-.06,2.51,2.51,0,0,0,.49-.12.75.75,0,0,0,.28-.18.19.19,0,0,0,0-.2.54.54,0,0,0-.22-.2,2.3,2.3,0,0,0-.45-.16" style="fill: rgb(255, 255, 255); transform-origin: 334.342px 330.365px;" id="elyohjy3spp3" class="animable"></path><path d="M380.13,342.9l-22.05-5.62h-3.61c-.4,0-.79,0-1.18,0s-.78-.05-1.15-.1-.75-.1-1.11-.16-.69-.14-1-.22l-38.45-9.87-.78-.24c-.24-.09-.45-.18-.64-.27a3.6,3.6,0,0,1-.48-.3,1.44,1.44,0,0,1-.3-.31l-.77-1.12-19.74-5L138.54,371.5l94.88,36.33L380.13,342.9" style="fill: rgb(144, 202, 249); stroke: rgb(255, 255, 255); stroke-miterlimit: 10; stroke-width: 3px; transform-origin: 259.335px 363.76px;" id="elqd9l78elfb" class="animable"></path><path d="M394.41,341.13a2.47,2.47,0,0,0-.92-.7,7.82,7.82,0,0,0-1.71-.6l-96.29-24a13.55,13.55,0,0,0-1.84-.31,19.1,19.1,0,0,0-2-.07,15,15,0,0,0-1.94.15,9.5,9.5,0,0,0-1.64.37l-171.4,58.14a7.31,7.31,0,0,0-1.79.85,2.12,2.12,0,0,0-.86.94.91.91,0,0,0,.12.92,2.59,2.59,0,0,0,1.16.8l100.54,40.71a10.83,10.83,0,0,0,2.54.66,17.54,17.54,0,0,0,5.84-.15,11.64,11.64,0,0,0,2.56-.79l166.87-75.56a1.75,1.75,0,0,0,.85-.67A.68.68,0,0,0,394.41,341.13Zm-161,66.7L138.54,371.5l150.32-51.89,19.74,5,.77,1.12a1.44,1.44,0,0,0,.3.31,3.6,3.6,0,0,0,.48.3c.19.09.4.18.64.27l.78.24L350,336.76c.32.08.66.16,1,.22s.73.12,1.11.16.76.08,1.15.1.78,0,1.18,0h3.61l22.05,5.62Zm92.74-79.31a.66.66,0,0,1,.29-.18,2.93,2.93,0,0,1,.49-.12,5.6,5.6,0,0,1,.6-.05c.21,0,.43,0,.64,0a3.45,3.45,0,0,1,.59.1l13.07,3.31a2.3,2.3,0,0,1,.45.16.54.54,0,0,1,.22.2.19.19,0,0,1,0,.2.75.75,0,0,1-.28.18,2.51,2.51,0,0,1-.49.12,5.73,5.73,0,0,1-.61.06l-.65,0a5.55,5.55,0,0,1-.61-.1l-13.07-3.34a1.57,1.57,0,0,1-.44-.16.44.44,0,0,1-.21-.19A.2.2,0,0,1,326.16,328.52ZM180.67,391.66a2.77,2.77,0,0,1-.78.44,6,6,0,0,1-1.13.3,7.46,7.46,0,0,1-1.25.13,8,8,0,0,1-1.22-.06,4.79,4.79,0,0,1-1-.26,1.78,1.78,0,0,1-.65-.41.59.59,0,0,1-.16-.47.84.84,0,0,1,.33-.48,2.54,2.54,0,0,1,.78-.44,6,6,0,0,1,1.13-.3,8.4,8.4,0,0,1,1.24-.12,8,8,0,0,1,1.21.06,4.86,4.86,0,0,1,1,.25,1.69,1.69,0,0,1,.65.4.54.54,0,0,1,.17.47A.82.82,0,0,1,180.67,391.66Z" style="fill: rgb(38, 50, 56); transform-origin: 254.251px 367.306px;" id="elm3von98svik" class="animable"></path><path d="M180.16,390.3a4.86,4.86,0,0,0-1-.25,8,8,0,0,0-1.21-.06,8.4,8.4,0,0,0-1.24.12,6,6,0,0,0-1.13.3,2.54,2.54,0,0,0-.78.44.84.84,0,0,0-.33.48.59.59,0,0,0,.16.47,1.78,1.78,0,0,0,.65.41,4.79,4.79,0,0,0,1,.26,8,8,0,0,0,1.22.06,7.46,7.46,0,0,0,1.25-.13,6,6,0,0,0,1.13-.3,2.77,2.77,0,0,0,.78-.44.82.82,0,0,0,.31-.49.54.54,0,0,0-.17-.47,1.69,1.69,0,0,0-.65-.4" style="fill: rgb(255, 255, 255); transform-origin: 177.721px 391.26px;" id="eld0p0tc3rah" class="animable"></path></g><g id="freepik--Lines--inject-122" class="animable" style="transform-origin: 256.03px 315.76px;"><line x1="146.79" y1="346.94" x2="149.65" y2="351.78" style="fill: none; stroke: rgb(38, 50, 56); stroke-miterlimit: 10; transform-origin: 148.22px 349.36px;" id="elj7xcnylvoh9" class="animable"></line><line x1="104.77" y1="275.87" x2="143.56" y2="341.47" style="fill: none; stroke: rgb(38, 50, 56); stroke-miterlimit: 10; transform-origin: 124.165px 308.67px;" id="elgpfggbz6jc" class="animable"></line><line x1="179.6" y1="332.92" x2="181.23" y2="336.82" style="fill: none; stroke: rgb(38, 50, 56); stroke-miterlimit: 10; transform-origin: 180.415px 334.87px;" id="el6p9rfq40bt8" class="animable"></line><line x1="168.49" y1="306.34" x2="177.78" y2="328.56" style="fill: none; stroke: rgb(38, 50, 56); stroke-miterlimit: 10; transform-origin: 173.135px 317.45px;" id="elfzol4gqsgo" class="animable"></line><line x1="362.12" y1="272.19" x2="341.68" y2="322.41" style="fill: none; stroke: rgb(38, 50, 56); stroke-miterlimit: 10; transform-origin: 351.9px 297.3px;" id="ely0mazycaus" class="animable"></line><line x1="367.17" y1="259.8" x2="364.64" y2="265.99" style="fill: none; stroke: rgb(38, 50, 56); stroke-miterlimit: 10; transform-origin: 365.905px 262.895px;" id="ell8jk684q4qc" class="animable"></line><line x1="378.51" y1="321.38" x2="374.05" y2="326.29" style="fill: none; stroke: rgb(38, 50, 56); stroke-miterlimit: 10; transform-origin: 376.28px 323.835px;" id="el6yec2z1s3xr" class="animable"></line><line x1="407.29" y1="289.72" x2="382.97" y2="316.47" style="fill: none; stroke: rgb(38, 50, 56); stroke-miterlimit: 10; transform-origin: 395.13px 303.095px;" id="elvxe85okug2h" class="animable"></line><line x1="161.84" y1="339.59" x2="178.46" y2="371.72" style="fill: none; stroke: rgb(38, 50, 56); stroke-miterlimit: 10; transform-origin: 170.15px 355.655px;" id="elzl24zxds0ik" class="animable"></line><line x1="365.74" y1="319.64" x2="347.45" y2="344.57" style="fill: none; stroke: rgb(38, 50, 56); stroke-miterlimit: 10; transform-origin: 356.595px 332.105px;" id="el1m0h0kzpo0a" class="animable"></line><line x1="248.83" y1="319.64" x2="253.26" y2="341.8" style="fill: none; stroke: rgb(38, 50, 56); stroke-miterlimit: 10; transform-origin: 251.045px 330.72px;" id="elxbpev4xdlj" class="animable"></line></g><g id="freepik--earth-globe--inject-122" class="animable" style="transform-origin: 254.25px 196.67px;"><circle cx="168.48" cy="108.87" r="10.88" style="fill: rgb(255, 255, 255); stroke: rgb(255, 255, 255); stroke-miterlimit: 10; stroke-width: 0.5px; transform-origin: 168.48px 108.87px;" id="elwhts64n3nue" class="animable"></circle><path d="M172.09,108.13H165a2.51,2.51,0,0,0-2.51,2.51v6a9.76,9.76,0,0,0,12.11-.09v-5.86A2.51,2.51,0,0,0,172.09,108.13Z" style="fill: rgb(144, 202, 249); transform-origin: 168.545px 113.415px;" id="elydns4fs2pmj" class="animable"></path><circle cx="168.42" cy="103.43" r="3.61" style="fill: rgb(144, 202, 249); transform-origin: 168.42px 103.43px;" id="el94qtln7nwn" class="animable"></circle><g id="el2kbma45wi2w"><circle cx="189" cy="303.08" r="10.88" style="fill: rgb(255, 255, 255); stroke: rgb(255, 255, 255); stroke-miterlimit: 10; stroke-width: 0.5px; transform-origin: 189px 303.08px; transform: rotate(-68.66deg);" class="animable"></circle></g><path d="M192.61,302.35h-7.1a2.5,2.5,0,0,0-2.5,2.5v5.95a9.75,9.75,0,0,0,12.1-.09v-5.86A2.5,2.5,0,0,0,192.61,302.35Z" style="fill: rgb(144, 202, 249); transform-origin: 189.06px 307.605px;" id="eln51296z0qfe" class="animable"></path><path d="M188.94,301.25a3.61,3.61,0,1,0-3.61-3.61A3.61,3.61,0,0,0,188.94,301.25Z" style="fill: rgb(144, 202, 249); transform-origin: 188.94px 297.64px;" id="el26l4m852ved" class="animable"></path><g id="eldmwtqlvfr7l"><circle cx="254.25" cy="196.67" r="108.67" style="fill: rgb(255, 255, 255); transform-origin: 254.25px 196.67px; transform: rotate(-45deg);" class="animable"></circle></g><g style="clip-path: url(&quot;#freepik--clip-path-2--inject-122&quot;); transform-origin: 254.25px 196.67px;" id="elog3273rb9g" class="animable"><g id="eldcw5nfhhkvj"><circle cx="254.25" cy="196.67" r="108.67" style="opacity: 0.18; transform-origin: 254.25px 196.67px; transform: rotate(-45deg);" class="animable"></circle></g><g id="el0lcn038yy6ud"><path d="M254.25,243.09a108.71,108.71,0,0,1-104.14-77.55,108.67,108.67,0,1,0,208.28,0A108.72,108.72,0,0,1,254.25,243.09Z" style="fill: rgb(255, 255, 255); opacity: 0.86; transform-origin: 254.25px 235.399px;" class="animable"></path></g><path d="M250.34,146.36,260.66,151l2.83,4.64,4.65,1.81.51,4.9-1.8,2.84-3.61.77-7.74-3.1v-1l4.38-1.8-1.55-5.42-7-2.58-3.09-4.12Zm65,119.15-8.25-3.35L297,258.55h-8L281.55,257l-8.26,1.81-4.64.25h-2.84l-5.41,3.1-5.16,2.06-7-4.38,1.8-7.22-4.38-1.81h-5.16l-.77-2.32.51-4.64-1.8-2.58-3.61.51-1,2.58-4.38.26L225.58,240,224,233.79l3.87-7.22,7.48.51,2.06,1.81h3.1l3.87-2.32,3.35,1,4.64,8,1.81-.25-.52-5.94-1.54-3.09.51-4.9,9.54-4.13,1.29-9.54,4.13-3.35,3.35-5.93,2.58-.52,5.93-3.87.26-2.06-4.13.26-.77-2.07H272l-4.38,1,2.06-3.35,9-2.58,2.06-2.32,3.61,5.67,2.33,2.33,3.61-1-1.55-3.35-5.42-3.87-6.19-7-6.45-4.39-6.19-1-3.09-3.09-4.13-1-.51,1-.52,7.48,1,2.58L255,185.56l-5.16-4.13.78-3.61-5.42-2.58-2.32-2.83,1.29-6.45,7.48-5.42.52-6.19-2.84.26-1.81-2.32-.77-3.87-1.81-.26-1,4.13-2.83.52-1.29-9-2.07-1.29-3.61-1.55L230,143l5.15,4.91,1,4.38-9.28-7-6.45-7-.51-7-6.71-2.06L208,132.69a38.83,38.83,0,0,1-3.87,2.06,42.49,42.49,0,0,1-6.19,1l-1,4.39-5.93.26.52,2.83,9.54,1.55,4.9,5.42v9l-2.84,8,.52,8.51-7.22,12.64-1.55,18.82,2.32,10.84,3.35,8.25,3.87.52-1.29-4.13-2.06-3.1-1.29-5.67,2.32-.52,3.61,9.29L208.3,231v6.71l4.9,5.93L222,250l13.41,3.61,4.13,3.87,3.09,4.12,4.64,2.84,5.68,1.55,5.67-.26s-.26,2.58-.26,3.87-3.61,5.67-3.61,5.67l-2.83,5.16,2.06,5.67,5.67,2.33,8,8.25,3.61,1.55v3.86l.45,1.81a108.27,108.27,0,0,0,54.09-25.47l.14-1.87,7-12.64-3.35-2.32Zm26.83-101.87-2.84-4.9-3.61-5.68-1-7.73,4.64.77.26-2.58-3.36-.26,2.84-1.29,3.1-1.8v-2.58l-3.1-4.13-.66-5.55A108.77,108.77,0,0,0,210.86,97l5.95,4.21-3.61,4.65-4.9,1-.52,7-2.06.77-2.58,2.84.26,4.64,4.38.52L206,127h4.38l7.48-9.54.78-4.12,7.22-.52,1.8-3.1,7.48-.77.78-4.38,5.41-.26s3.87-2.06,4.65-2.06a31.7,31.7,0,0,1,4.38,1.28l3.87,3.1h5.41l4.65-2.84,5.93.52a6.39,6.39,0,0,0,2.84,1c1.29,0,5.15-1.81,5.15-1.81l7.48,4.65,3.1,2.32v3.87l3.87.51,1.29-2.32,3.35,1.55-.26,2.06-7.74,2.07,4.39,5.67,9.28,5.16,3.87,5.16,5.68.51,1.29-2.58,2.06-.51-6.71-5.16L305,126l3.35-1-3.1-4.38,4.39-.26,5.67,3.09,1.29,6.19,2.84,3.36,2.32,7.48,5.67,4.12v8.51l5.94,3.87-.26,2.84-.78,3.35,1.55,4.64.52,2.33,4.38.77,2.07-4.39Zm3.35-26v1.48l-1.29,4.12.77,3.61,2.84,1v4.9l-3.1-1.29L344,165.44l-3.09,5.68,2.06,7.22,3.35,3.09v13.93l3.35,10.83,3.62,8.26,5.93,1.54,2.06-5.16.84-.65a109.63,109.63,0,0,0,.84-13.51A108.14,108.14,0,0,0,345.51,137.66ZM285.93,136l-17-7.48-7.48.26-1.81,4.9-3.09-3.35-5.67,1.29-.52,8.51,4.64,3.35,3.35-4.9,3.87,3.87,8,7,1.55,7.48,6.7,8.51,10.83-1.8-.25-3.87-2.32-4.39-.52-10.31,2.58-4.39Zm13.93,5.68-3.87-1-3.35,2.84,1.8,7.48h3.36Zm24,4.9L315.08,142l-1.81-3.09-2.06.77,1.8,5.16,1.55,6.71,3.87,1.54.77-1-2.32-3.87,6.71,2.58Zm-75.31,93.1-1,1,7.74,2.32,3.09,3.61,4.91.52,1.8-2.84-5.93-1Zm23,4.9-5.42,1.55.78,2.06h6.7l1.29-2.06-2.32.26Z" style="fill: rgb(144, 202, 249); transform-origin: 276.985px 195.94px;" id="ela1j9373qxg" class="animable"></path><g style="clip-path: url(&quot;#freepik--clip-path-3--inject-122&quot;); transform-origin: 254.25px 235.399px;" id="elgj90c4rgjtw" class="animable"><g id="el3m35sbrm0ig"><path d="M254.25,243.09a108.71,108.71,0,0,1-104.14-77.55,108.67,108.67,0,1,0,208.28,0A108.72,108.72,0,0,1,254.25,243.09Z" style="fill: rgb(255, 255, 255); opacity: 0.65; transform-origin: 254.25px 235.399px;" class="animable"></path></g></g><path d="M250.34,146.36,260.66,151l2.83,4.64,4.65,1.81.51,4.9-1.8,2.84-3.61.77-7.74-3.1v-1l4.38-1.8-1.55-5.42-7-2.58-3.09-4.12Zm65,119.15-8.25-3.35L297,258.55h-8L281.55,257l-8.26,1.81-4.64.25h-2.84l-5.41,3.1-5.16,2.06-7-4.38,1.8-7.22-4.38-1.81h-5.16l-.77-2.32.51-4.64-1.8-2.58-3.61.51-1,2.58-4.38.26L225.58,240,224,233.79l3.87-7.22,7.48.51,2.06,1.81h3.1l3.87-2.32,3.35,1,4.64,8,1.81-.25-.52-5.94-1.54-3.09.51-4.9,9.54-4.13,1.29-9.54,4.13-3.35,3.35-5.93,2.58-.52,5.93-3.87.26-2.06-4.13.26-.77-2.07H272l-4.38,1,2.06-3.35,9-2.58,2.06-2.32,3.61,5.67,2.33,2.33,3.61-1-1.55-3.35-5.42-3.87-6.19-7-6.45-4.39-6.19-1-3.09-3.09-4.13-1-.51,1-.52,7.48,1,2.58L255,185.56l-5.16-4.13.78-3.61-5.42-2.58-2.32-2.83,1.29-6.45,7.48-5.42.52-6.19-2.84.26-1.81-2.32-.77-3.87-1.81-.26-1,4.13-2.83.52-1.29-9-2.07-1.29-3.61-1.55L230,143l5.15,4.91,1,4.38-9.28-7-6.45-7-.51-7-6.71-2.06L208,132.69a38.83,38.83,0,0,1-3.87,2.06,42.49,42.49,0,0,1-6.19,1l-1,4.39-5.93.26.52,2.83,9.54,1.55,4.9,5.42v9l-2.84,8,.52,8.51-7.22,12.64-1.55,18.82,2.32,10.84,3.35,8.25,3.87.52-1.29-4.13-2.06-3.1-1.29-5.67,2.32-.52,3.61,9.29L208.3,231v6.71l4.9,5.93L222,250l13.41,3.61,4.13,3.87,3.09,4.12,4.64,2.84,5.68,1.55,5.67-.26s-.26,2.58-.26,3.87-3.61,5.67-3.61,5.67l-2.83,5.16,2.06,5.67,5.67,2.33,8,8.25,3.61,1.55v3.86l.45,1.81a108.27,108.27,0,0,0,54.09-25.47l.14-1.87,7-12.64-3.35-2.32Zm26.83-101.87-2.84-4.9-3.61-5.68-1-7.73,4.64.77.26-2.58-3.36-.26,2.84-1.29,3.1-1.8v-2.58l-3.1-4.13-.66-5.55A108.77,108.77,0,0,0,210.86,97l5.95,4.21-3.61,4.65-4.9,1-.52,7-2.06.77-2.58,2.84.26,4.64,4.38.52L206,127h4.38l7.48-9.54.78-4.12,7.22-.52,1.8-3.1,7.48-.77.78-4.38,5.41-.26s3.87-2.06,4.65-2.06a31.7,31.7,0,0,1,4.38,1.28l3.87,3.1h5.41l4.65-2.84,5.93.52a6.39,6.39,0,0,0,2.84,1c1.29,0,5.15-1.81,5.15-1.81l7.48,4.65,3.1,2.32v3.87l3.87.51,1.29-2.32,3.35,1.55-.26,2.06-7.74,2.07,4.39,5.67,9.28,5.16,3.87,5.16,5.68.51,1.29-2.58,2.06-.51-6.71-5.16L305,126l3.35-1-3.1-4.38,4.39-.26,5.67,3.09,1.29,6.19,2.84,3.36,2.32,7.48,5.67,4.12v8.51l5.94,3.87-.26,2.84-.78,3.35,1.55,4.64.52,2.33,4.38.77,2.07-4.39Zm3.35-26v1.48l-1.29,4.12.77,3.61,2.84,1v4.9l-3.1-1.29L344,165.44l-3.09,5.68,2.06,7.22,3.35,3.09v13.93l3.35,10.83,3.62,8.26,5.93,1.54,2.06-5.16.84-.65a109.63,109.63,0,0,0,.84-13.51A108.14,108.14,0,0,0,345.51,137.66ZM285.93,136l-17-7.48-7.48.26-1.81,4.9-3.09-3.35-5.67,1.29-.52,8.51,4.64,3.35,3.35-4.9,3.87,3.87,8,7,1.55,7.48,6.7,8.51,10.83-1.8-.25-3.87-2.32-4.39-.52-10.31,2.58-4.39Zm13.93,5.68-3.87-1-3.35,2.84,1.8,7.48h3.36Zm24,4.9L315.08,142l-1.81-3.09-2.06.77,1.8,5.16,1.55,6.71,3.87,1.54.77-1-2.32-3.87,6.71,2.58Zm-75.31,93.1-1,1,7.74,2.32,3.09,3.61,4.91.52,1.8-2.84-5.93-1Zm23,4.9-5.42,1.55.78,2.06h6.7l1.29-2.06-2.32.26Z" style="fill: none; stroke: rgb(38, 50, 56); stroke-miterlimit: 10; transform-origin: 276.985px 195.94px;" id="elb7452lvebj" class="animable"></path></g><g id="eltiiof4jody"><circle cx="254.25" cy="196.67" r="108.67" style="fill: none; stroke: rgb(38, 50, 56); stroke-miterlimit: 10; transform-origin: 254.25px 196.67px; transform: rotate(-45deg);" class="animable"></circle></g><g id="elmftq81fbnhs"><circle cx="388.63" cy="141.59" r="10.88" style="fill: rgb(255, 255, 255); stroke: rgb(255, 255, 255); stroke-miterlimit: 10; stroke-width: 0.5px; transform-origin: 388.63px 141.59px; transform: rotate(-9.25deg);" class="animable"></circle></g><path d="M392.24,140.85h-7.1a2.5,2.5,0,0,0-2.5,2.51v5.95a9.75,9.75,0,0,0,12.1-.09v-5.86A2.5,2.5,0,0,0,392.24,140.85Z" style="fill: rgb(144, 202, 249); transform-origin: 388.69px 146.11px;" id="elsb8hcn6oyyc" class="animable"></path><path d="M388.57,139.75a3.61,3.61,0,1,0-3.61-3.61A3.61,3.61,0,0,0,388.57,139.75Z" style="fill: rgb(144, 202, 249); transform-origin: 388.57px 136.14px;" id="elyklhl8qgpl" class="animable"></path><circle cx="311.96" cy="97.92" r="10.88" style="fill: rgb(255, 255, 255); stroke: rgb(255, 255, 255); stroke-miterlimit: 10; stroke-width: 0.5px; transform-origin: 311.96px 97.92px;" id="el6uo9do7gmm4" class="animable"></circle><path d="M315.56,97.18h-7.09A2.51,2.51,0,0,0,306,99.69v6a9.76,9.76,0,0,0,12.11-.09V99.69A2.51,2.51,0,0,0,315.56,97.18Z" style="fill: rgb(144, 202, 249); transform-origin: 312.055px 102.465px;" id="elg4dlwckeyaw" class="animable"></path><circle cx="311.89" cy="92.47" r="3.61" style="fill: rgb(144, 202, 249); transform-origin: 311.89px 92.47px;" id="ele8mhcjppk68" class="animable"></circle><g id="elso5kwh8tr3i"><circle cx="115.13" cy="164.09" r="10.88" style="fill: rgb(255, 255, 255); stroke: rgb(255, 255, 255); stroke-miterlimit: 10; stroke-width: 0.5px; transform-origin: 115.13px 164.09px; transform: rotate(-9.25deg);" class="animable"></circle></g><path d="M118.74,163.35h-7.1a2.5,2.5,0,0,0-2.5,2.51v5.95a9.75,9.75,0,0,0,12.1-.09v-5.86A2.5,2.5,0,0,0,118.74,163.35Z" style="fill: rgb(144, 202, 249); transform-origin: 115.19px 168.61px;" id="ele5xkc9ajf3m" class="animable"></path><path d="M115.07,162.25a3.61,3.61,0,1,0-3.61-3.61A3.61,3.61,0,0,0,115.07,162.25Z" style="fill: rgb(144, 202, 249); transform-origin: 115.07px 158.64px;" id="el3n39rfkgk8s" class="animable"></path><g id="elfsoxomz842t"><circle cx="122.13" cy="232.59" r="10.88" style="fill: rgb(255, 255, 255); stroke: rgb(255, 255, 255); stroke-miterlimit: 10; stroke-width: 0.5px; transform-origin: 122.13px 232.59px; transform: rotate(-9.25deg);" class="animable"></circle></g><path d="M125.74,231.85h-7.1a2.5,2.5,0,0,0-2.5,2.51v5.95a9.75,9.75,0,0,0,12.1-.09v-5.86A2.5,2.5,0,0,0,125.74,231.85Z" style="fill: rgb(144, 202, 249); transform-origin: 122.19px 237.11px;" id="el2wshvhbkhiw" class="animable"></path><path d="M122.07,230.75a3.61,3.61,0,1,0-3.61-3.61A3.61,3.61,0,0,0,122.07,230.75Z" style="fill: rgb(144, 202, 249); transform-origin: 122.07px 227.14px;" id="el1x5skriekcw" class="animable"></path><g id="el8coe4w4flfp"><circle cx="166.5" cy="177.58" r="10.88" style="fill: rgb(255, 255, 255); stroke: rgb(255, 255, 255); stroke-miterlimit: 10; stroke-width: 0.5px; transform-origin: 166.5px 177.58px; transform: rotate(-68.51deg);" class="animable"></circle></g><path d="M170.11,176.85H163a2.5,2.5,0,0,0-2.5,2.5v6a9.75,9.75,0,0,0,12.1-.09v-5.86A2.5,2.5,0,0,0,170.11,176.85Z" style="fill: rgb(144, 202, 249); transform-origin: 166.55px 182.13px;" id="elgquw2dt3idn" class="animable"></path><path d="M166.44,175.75a3.61,3.61,0,1,0-3.61-3.61A3.61,3.61,0,0,0,166.44,175.75Z" style="fill: rgb(144, 202, 249); transform-origin: 166.44px 172.14px;" id="elytm8zulp8b" class="animable"></path><circle cx="238.27" cy="284.33" r="10.88" style="fill: rgb(255, 255, 255); stroke: rgb(255, 255, 255); stroke-miterlimit: 10; stroke-width: 0.5px; transform-origin: 238.27px 284.33px;" id="el15e3er76q0q" class="animable"></circle><path d="M241.88,283.6h-7.09a2.51,2.51,0,0,0-2.51,2.51v5.95a9.76,9.76,0,0,0,12.11-.09v-5.86A2.51,2.51,0,0,0,241.88,283.6Z" style="fill: rgb(144, 202, 249); transform-origin: 238.335px 288.86px;" id="elqj7opquue8i" class="animable"></path><circle cx="238.21" cy="278.89" r="3.61" style="fill: rgb(144, 202, 249); transform-origin: 238.21px 278.89px;" id="elzq8fzf1cgl" class="animable"></circle><circle cx="316.5" cy="305.25" r="10.88" style="fill: rgb(255, 255, 255); stroke: rgb(255, 255, 255); stroke-miterlimit: 10; stroke-width: 0.5px; transform-origin: 316.5px 305.25px;" id="elgxetn21dzp7" class="animable"></circle><path d="M320.1,304.52H313a2.51,2.51,0,0,0-2.51,2.5v6a9.76,9.76,0,0,0,12.11-.09V307A2.5,2.5,0,0,0,320.1,304.52Z" style="fill: rgb(144, 202, 249); transform-origin: 316.545px 309.8px;" id="elf3z34mbgvrw" class="animable"></path><circle cx="316.43" cy="299.81" r="3.61" style="fill: rgb(144, 202, 249); transform-origin: 316.43px 299.81px;" id="eldonmma9l81g" class="animable"></circle><g id="el2w6yq5lgwgt"><circle cx="371.5" cy="242.58" r="10.88" style="fill: rgb(255, 255, 255); stroke: rgb(255, 255, 255); stroke-miterlimit: 10; stroke-width: 0.5px; transform-origin: 371.5px 242.58px; transform: rotate(-69.82deg);" class="animable"></circle></g><path d="M375.11,241.85H368a2.5,2.5,0,0,0-2.5,2.5v6a9.75,9.75,0,0,0,12.1-.09v-5.86A2.5,2.5,0,0,0,375.11,241.85Z" style="fill: rgb(144, 202, 249); transform-origin: 371.55px 247.13px;" id="eld9hredyhpgu" class="animable"></path><path d="M371.44,240.75a3.61,3.61,0,1,0-3.61-3.61A3.61,3.61,0,0,0,371.44,240.75Z" style="fill: rgb(144, 202, 249); transform-origin: 371.44px 237.14px;" id="elh1xsngylspe" class="animable"></path><path d="M349.86,144.64c15.36,12.45,24.47,28,24.47,44.78,0,41-54.17,74.26-121,74.26s-121-33.25-121-74.26c0-17.94,10.37-34.39,27.63-47.23" style="fill: none; stroke: rgb(255, 255, 255); stroke-miterlimit: 10; stroke-width: 0.5px; transform-origin: 253.33px 202.935px;" id="elfx0hno88u5k" class="animable"></path><path d="M184,113.75C194.89,95.9,210.2,84,228.34,81.35c42.62-6.14,84.73,41.47,94.07,106.34s-17.63,122.43-60.24,128.57c-19.4,2.79-38.7-5.55-54.85-21.59" style="fill: none; stroke: rgb(255, 255, 255); stroke-miterlimit: 10; stroke-width: 0.5px; transform-origin: 254.129px 198.804px;" id="elge1xzv8x0d" class="animable"></path><g id="elmp6su4s6qfi"><ellipse cx="243.81" cy="207.7" rx="49.19" ry="121.67" style="fill: none; stroke: rgb(255, 255, 255); stroke-miterlimit: 10; stroke-width: 0.5px; transform-origin: 243.81px 207.7px; transform: rotate(-58.58deg);" class="animable"></ellipse></g><g id="elkrn7picbwn"><ellipse cx="252.72" cy="202.26" rx="124.86" ry="49.19" style="fill: none; stroke: rgb(255, 255, 255); stroke-miterlimit: 10; stroke-width: 0.5px; transform-origin: 252.72px 202.26px; transform: rotate(-31.42deg);" class="animable"></ellipse></g><path d="M304.07,128a2,2,0,1,0-2,2A2,2,0,0,0,304.07,128Z" style="fill: rgb(255, 255, 255); stroke: rgb(255, 255, 255); stroke-miterlimit: 10; stroke-width: 0.5px; transform-origin: 302.07px 128px;" id="elaeat7z8rep9" class="animable"></path><path d="M326.07,209.87a2,2,0,1,0-2,2A2,2,0,0,0,326.07,209.87Z" style="fill: rgb(255, 255, 255); stroke: rgb(255, 255, 255); stroke-miterlimit: 10; stroke-width: 0.5px; transform-origin: 324.07px 209.87px;" id="elzm4uyounypj" class="animable"></path><path d="M321.67,251.46a2,2,0,1,0-2,2A2,2,0,0,0,321.67,251.46Z" style="fill: rgb(255, 255, 255); stroke: rgb(255, 255, 255); stroke-miterlimit: 10; stroke-width: 0.5px; transform-origin: 319.67px 251.46px;" id="elbrxd1nydu0p" class="animable"></path><path d="M308.91,283.14a2,2,0,1,0-2,2A2,2,0,0,0,308.91,283.14Z" style="fill: rgb(255, 255, 255); stroke: rgb(255, 255, 255); stroke-miterlimit: 10; stroke-width: 0.5px; transform-origin: 306.91px 283.14px;" id="elwojjfvpwsh" class="animable"></path><path d="M347,238a2,2,0,1,0-2,2A2,2,0,0,0,347,238Z" style="fill: rgb(255, 255, 255); stroke: rgb(255, 255, 255); stroke-miterlimit: 10; stroke-width: 0.5px; transform-origin: 345px 238px;" id="el0mves6nq9efe" class="animable"></path><path d="M244.22,263.12a2,2,0,1,0-2,2A2,2,0,0,0,244.22,263.12Z" style="fill: rgb(255, 255, 255); stroke: rgb(255, 255, 255); stroke-miterlimit: 10; stroke-width: 0.5px; transform-origin: 242.22px 263.12px;" id="elbpbymfpdna" class="animable"></path><path d="M153.13,229.9a2,2,0,1,0-2,2A2,2,0,0,0,153.13,229.9Z" style="fill: rgb(255, 255, 255); stroke: rgb(255, 255, 255); stroke-miterlimit: 10; stroke-width: 0.5px; transform-origin: 151.13px 229.9px;" id="eldzal4c74zzo" class="animable"></path><path d="M168.53,209.21a2,2,0,1,0-2,2A2,2,0,0,0,168.53,209.21Z" style="fill: rgb(255, 255, 255); stroke: rgb(255, 255, 255); stroke-miterlimit: 10; stroke-width: 0.5px; transform-origin: 166.53px 209.21px;" id="elis6z5j5g8j8" class="animable"></path><path d="M244.44,151.35a2,2,0,1,0-2,2A2,2,0,0,0,244.44,151.35Z" style="fill: rgb(255, 255, 255); stroke: rgb(255, 255, 255); stroke-miterlimit: 10; stroke-width: 0.5px; transform-origin: 242.44px 151.35px;" id="el1p8lzq807qoj" class="animable"></path><path d="M363.25,156.41a2,2,0,1,0-2,2A2,2,0,0,0,363.25,156.41Z" style="fill: rgb(255, 255, 255); stroke: rgb(255, 255, 255); stroke-miterlimit: 10; stroke-width: 0.5px; transform-origin: 361.25px 156.41px;" id="elnqet8axrirr" class="animable"></path><path d="M140.59,166.09a2,2,0,1,0-2,2A2,2,0,0,0,140.59,166.09Z" style="fill: rgb(255, 255, 255); stroke: rgb(255, 255, 255); stroke-miterlimit: 10; stroke-width: 0.5px; transform-origin: 138.59px 166.09px;" id="eltfvbqffnca" class="animable"></path><line x1="363.23" y1="155.62" x2="378.95" y2="147.16" style="fill: none; stroke: rgb(255, 255, 255); stroke-miterlimit: 10; stroke-width: 0.5px; transform-origin: 371.09px 151.39px;" id="elyjaanlzdqkg" class="animable"></line><line x1="136.63" y1="166.09" x2="126.01" y2="164.09" style="fill: none; stroke: rgb(255, 255, 255); stroke-miterlimit: 10; stroke-width: 0.5px; transform-origin: 131.32px 165.09px;" id="eljrg7a0kimyd" class="animable"></line><line x1="166.55" y1="207.23" x2="166.55" y2="188.46" style="fill: none; stroke: rgb(255, 255, 255); stroke-miterlimit: 10; stroke-width: 0.5px; transform-origin: 166.55px 197.845px;" id="elfmw80m374rk" class="animable"></line><line x1="149.17" y1="229.9" x2="133.01" y2="232.59" style="fill: none; stroke: rgb(255, 255, 255); stroke-miterlimit: 10; stroke-width: 0.5px; transform-origin: 141.09px 231.245px;" id="el22cp9oggwue" class="animable"></line><line x1="241.79" y1="265.07" x2="240.31" y2="273.77" style="fill: none; stroke: rgb(255, 255, 255); stroke-miterlimit: 10; stroke-width: 0.5px; transform-origin: 241.05px 269.42px;" id="elppnsfl1hr4" class="animable"></line><line x1="307.68" y1="285.05" x2="312.31" y2="295.13" style="fill: none; stroke: rgb(255, 255, 255); stroke-miterlimit: 10; stroke-width: 0.5px; transform-origin: 309.995px 290.09px;" id="elpxqgo0kcka" class="animable"></line><line x1="346.97" y1="238.04" x2="360.41" y2="240.92" style="fill: none; stroke: rgb(255, 255, 255); stroke-miterlimit: 10; stroke-width: 0.5px; transform-origin: 353.69px 239.48px;" id="elyubrh9yfmh" class="animable"></line><line x1="318.09" y1="250.01" x2="305.04" y2="237.45" style="fill: none; stroke: rgb(255, 255, 255); stroke-miterlimit: 10; stroke-width: 0.5px; transform-origin: 311.565px 243.73px;" id="elw32cbptglf" class="animable"></line><line x1="302.89" y1="126.22" x2="308.84" y2="108.53" style="fill: none; stroke: rgb(255, 255, 255); stroke-miterlimit: 10; stroke-width: 0.5px; transform-origin: 305.865px 117.375px;" id="elnbn02e3o7u" class="animable"></line><line x1="176.38" y1="116.95" x2="178.9" y2="118.84" style="fill: none; stroke: rgb(255, 255, 255); stroke-miterlimit: 10; stroke-width: 0.5px; transform-origin: 177.64px 117.895px;" id="ellm8kjhzw3qs" class="animable"></line><line x1="195.6" y1="294.31" x2="198.43" y2="290.53" style="fill: none; stroke: rgb(255, 255, 255); stroke-miterlimit: 10; stroke-width: 0.5px; transform-origin: 197.015px 292.42px;" id="elb2lqxv5m4p7" class="animable"></line><g id="elmz48pnh0j5"><circle cx="297" cy="230.08" r="10.88" style="fill: rgb(255, 255, 255); stroke: rgb(255, 255, 255); stroke-miterlimit: 10; stroke-width: 0.5px; transform-origin: 297px 230.08px; transform: rotate(-69.36deg);" class="animable"></circle></g><path d="M300.61,229.35h-7.1a2.5,2.5,0,0,0-2.5,2.5v6a9.75,9.75,0,0,0,12.1-.09v-5.86A2.5,2.5,0,0,0,300.61,229.35Z" style="fill: rgb(144, 202, 249); transform-origin: 297.06px 234.63px;" id="el5an3f7vligj" class="animable"></path><path d="M296.94,228.25a3.61,3.61,0,1,0-3.61-3.61A3.61,3.61,0,0,0,296.94,228.25Z" style="fill: rgb(144, 202, 249); transform-origin: 296.94px 224.64px;" id="elzvyteeugw9p" class="animable"></path><g id="elctkbs7dn7jp"><circle cx="321.5" cy="178.58" r="10.88" style="fill: rgb(255, 255, 255); stroke: rgb(255, 255, 255); stroke-miterlimit: 10; stroke-width: 0.5px; transform-origin: 321.5px 178.58px; transform: rotate(-69.51deg);" class="animable"></circle></g><path d="M325.11,177.85H318a2.5,2.5,0,0,0-2.5,2.5v6a9.75,9.75,0,0,0,12.1-.09v-5.86A2.5,2.5,0,0,0,325.11,177.85Z" style="fill: rgb(144, 202, 249); transform-origin: 321.55px 183.13px;" id="elbg5jg5nhyfm" class="animable"></path><path d="M321.44,176.75a3.61,3.61,0,1,0-3.61-3.61A3.61,3.61,0,0,0,321.44,176.75Z" style="fill: rgb(144, 202, 249); transform-origin: 321.44px 173.14px;" id="elkf26kw9wev8" class="animable"></path></g><defs>     <filter id="active" height="200%">         <feMorphology in="SourceAlpha" result="DILATED" operator="dilate" radius="2"></feMorphology>                <feFlood flood-color="#32DFEC" flood-opacity="1" result="PINK"></feFlood>        <feComposite in="PINK" in2="DILATED" operator="in" result="OUTLINE"></feComposite>        <feMerge>            <feMergeNode in="OUTLINE"></feMergeNode>            <feMergeNode in="SourceGraphic"></feMergeNode>        </feMerge>    </filter>    <filter id="hover" height="200%">        <feMorphology in="SourceAlpha" result="DILATED" operator="dilate" radius="2"></feMorphology>                <feFlood flood-color="#ff0000" flood-opacity="0.5" result="PINK"></feFlood>        <feComposite in="PINK" in2="DILATED" operator="in" result="OUTLINE"></feComposite>        <feMerge>            <feMergeNode in="OUTLINE"></feMergeNode>            <feMergeNode in="SourceGraphic"></feMergeNode>        </feMerge>            <feColorMatrix type="matrix" values="0   0   0   0   0                0   1   0   0   0                0   0   0   0   0                0   0   0   1   0 "></feColorMatrix>    </filter></defs><defs><clipPath id="freepik--clip-path--inject-122"><path d="M394.05,350l.07-8.2L292.07,317l-177.7,59.46V385a1.74,1.74,0,0,0,.39,1.13,2.64,2.64,0,0,0,1.17.79l99.9,41.23a10.84,10.84,0,0,0,2.54.65,17.54,17.54,0,0,0,5.84-.15,11.64,11.64,0,0,0,2.56-.79L392.86,352a1.66,1.66,0,0,0,.84-.66A2,2,0,0,0,394.05,350Z" style="fill:#fff;stroke:#263238;stroke-miterlimit:10"></path></clipPath><clipPath id="freepik--clip-path-2--inject-122"><circle cx="254.25" cy="196.67" r="108.67" transform="translate(-64.6 237.38) rotate(-45)" style="fill:#fff;stroke:#263238;stroke-miterlimit:10"></circle></clipPath><clipPath id="freepik--clip-path-3--inject-122"><path d="M250.34,146.36,260.66,151l2.83,4.64,4.65,1.81.51,4.9-1.8,2.84-3.61.77-7.74-3.1v-1l4.38-1.8-1.55-5.42-7-2.58-3.09-4.12Zm65,119.15-8.25-3.35L297,258.55h-8L281.55,257l-8.26,1.81-4.64.25h-2.84l-5.41,3.1-5.16,2.06-7-4.38,1.8-7.22-4.38-1.81h-5.16l-.77-2.32.51-4.64-1.8-2.58-3.61.51-1,2.58-4.38.26L225.58,240,224,233.79l3.87-7.22,7.48.51,2.06,1.81h3.1l3.87-2.32,3.35,1,4.64,8,1.81-.25-.52-5.94-1.54-3.09.51-4.9,9.54-4.13,1.29-9.54,4.13-3.35,3.35-5.93,2.58-.52,5.93-3.87.26-2.06-4.13.26-.77-2.07H272l-4.38,1,2.06-3.35,9-2.58,2.06-2.32,3.61,5.67,2.33,2.33,3.61-1-1.55-3.35-5.42-3.87-6.19-7-6.45-4.39-6.19-1-3.09-3.09-4.13-1-.51,1-.52,7.48,1,2.58L255,185.56l-5.16-4.13.78-3.61-5.42-2.58-2.32-2.83,1.29-6.45,7.48-5.42.52-6.19-2.84.26-1.81-2.32-.77-3.87-1.81-.26-1,4.13-2.83.52-1.29-9-2.07-1.29-3.61-1.55L230,143l5.15,4.91,1,4.38-9.28-7-6.45-7-.51-7-6.71-2.06L208,132.69a38.83,38.83,0,0,1-3.87,2.06,42.49,42.49,0,0,1-6.19,1l-1,4.39-5.93.26.52,2.83,9.54,1.55,4.9,5.42v9l-2.84,8,.52,8.51-7.22,12.64-1.55,18.82,2.32,10.84,3.35,8.25,3.87.52-1.29-4.13-2.06-3.1-1.29-5.67,2.32-.52,3.61,9.29L208.3,231v6.71l4.9,5.93L222,250l13.41,3.61,4.13,3.87,3.09,4.12,4.64,2.84,5.68,1.55,5.67-.26s-.26,2.58-.26,3.87-3.61,5.67-3.61,5.67l-2.83,5.16,2.06,5.67,5.67,2.33,8,8.25,3.61,1.55v3.86l.45,1.81a108.27,108.27,0,0,0,54.09-25.47l.14-1.87,7-12.64-3.35-2.32Zm26.83-101.87-2.84-4.9-3.61-5.68-1-7.73,4.64.77.26-2.58-3.36-.26,2.84-1.29,3.1-1.8v-2.58l-3.1-4.13-.66-5.55A108.77,108.77,0,0,0,210.86,97l5.95,4.21-3.61,4.65-4.9,1-.52,7-2.06.77-2.58,2.84.26,4.64,4.38.52L206,127h4.38l7.48-9.54.78-4.12,7.22-.52,1.8-3.1,7.48-.77.78-4.38,5.41-.26s3.87-2.06,4.65-2.06a31.7,31.7,0,0,1,4.38,1.28l3.87,3.1h5.41l4.65-2.84,5.93.52a6.39,6.39,0,0,0,2.84,1c1.29,0,5.15-1.81,5.15-1.81l7.48,4.65,3.1,2.32v3.87l3.87.51,1.29-2.32,3.35,1.55-.26,2.06-7.74,2.07,4.39,5.67,9.28,5.16,3.87,5.16,5.68.51,1.29-2.58,2.06-.51-6.71-5.16L305,126l3.35-1-3.1-4.38,4.39-.26,5.67,3.09,1.29,6.19,2.84,3.36,2.32,7.48,5.67,4.12v8.51l5.94,3.87-.26,2.84-.78,3.35,1.55,4.64.52,2.33,4.38.77,2.07-4.39Zm3.35-26v1.48l-1.29,4.12.77,3.61,2.84,1v4.9l-3.1-1.29L344,165.44l-3.09,5.68,2.06,7.22,3.35,3.09v13.93l3.35,10.83,3.62,8.26,5.93,1.54,2.06-5.16.84-.65a109.63,109.63,0,0,0,.84-13.51A108.14,108.14,0,0,0,345.51,137.66ZM285.93,136l-17-7.48-7.48.26-1.81,4.9-3.09-3.35-5.67,1.29-.52,8.51,4.64,3.35,3.35-4.9,3.87,3.87,8,7,1.55,7.48,6.7,8.51,10.83-1.8-.25-3.87-2.32-4.39-.52-10.31,2.58-4.39Zm13.93,5.68-3.87-1-3.35,2.84,1.8,7.48h3.36Zm24,4.9L315.08,142l-1.81-3.09-2.06.77,1.8,5.16,1.55,6.71,3.87,1.54.77-1-2.32-3.87,6.71,2.58Zm-75.31,93.1-1,1,7.74,2.32,3.09,3.61,4.91.52,1.8-2.84-5.93-1Zm23,4.9-5.42,1.55.78,2.06h6.7l1.29-2.06-2.32.26Z" style="fill:#90CAF9;stroke:#263238;stroke-miterlimit:10"></path></clipPath></defs></svg>